Jimi Hendrix No More A Rolling Stone][2CD live 67][Flac][ICM369
_____Jimi Hendrix No More A Rolling Stone][2CD live 67][Flac][ICM369
_______________________________________________________________

Jimi Hendrix - No More A Rolling Stone 
 
Jimi Hendrix Experience

Very rare release by Purple Haze of the Monterey'67 and 
Stockholm '67 recordings.

Jimi Plays Monterey is a posthumous live album by Jimi Hendrix 
released in February 1986. 

The album documents The Jimi Hendrix Experiences performance at 
the Monterey Pop Festival on June 18, 1967. 
As well as songs from the band's debut album Are You Experienced, 
Monterey also includes covers of "Killing Floor" (Howlin' Wolf), 
"Like a Rolling Stone" (Bob Dylan), "Rock Me Baby" (B. B. King) 
and "Wild Thing" (Chip Taylor). 

The version of "Wild Thing" on the album is one of the most notable 
live performances ever, as, in an iconic moment in rock history, 
he sets his guitar alight after the song and then smashes it.

Jimi Plays Monterey is also a short film directed by D. A. Pennebaker 
documenting the same performance as the album, also released in 1986. 
It is notable for containing several interviews with rock stars, and 
containing an art piece by Denny Dent during the performance of 
"Can You See Me".
__________

Disc 1

*June 18, 1967 Monterey Pop Festival

 1. Introduction

 2. Killing Floor (Chester Arthur Burnett) – 3:37
 
 3. Foxy Lady – 3:34
 
 4. Like a Rolling Stone (Dylan) – 6:50
 
 5. Rock Me Baby (Joe Josea, B. B. King) – 3:29
 
 6. Hey Joe" (Roberts) – 4:03
 
 7. Can You See Me – 2:43
 
 8. The Wind Cries Mary – 3:46
 
 9. Purple Haze – 5:06
 
10. Wild Thing (Taylor) – 6:59

Disc 2

*September 5, 1967 in Stockholm


 1. Sgt. Pepper's Lonely Hearts Club Band
 
 2. Fire
 
 3. The Wind Cries Mary
 
 4. Foxy Lady
 
 5. Hey Joe
 
 6. I Don't Live Today
 
 7. Burning of the Midnight Lamp
 
 8. Purple Haze
__________

Format                           : FLAC
Format/Info                      : Free Lossless Audio Codec
File size                        : 20.5 MiB
Duration                         : 3mn 9s
Overall bit rate                 : 908 Kbps
Album                            : No More A Rolling Stone [Disc 1 - Live At The Monterey Pop Festival '67]
Track name                       : Killin' Floor
Track name/Position              : 02
Track name/Total                 : 10
Performer                        : Jimi Hendrix Experience, The
Genre                            : Rock
Recorded date                    : 2004
Comment                          : EAC V0.99 prebeta 4, Secure Mode, Test & Copy, AccurateRip, FLAC -8

Audio
Format                           : FLAC
Format/Info                      : Free Lossless Audio Codec
Duration                         : 3mn 9s
Bit rate mode                    : Variable
Bit rate                         : 907 Kbps
Channel(s)                       : 2 channels
Sampling rate                    : 44.1 KHz
Bit depth                        : 16 bits
Stream size                      : 20.5 MiB (100%)
Writing library                  : libFLAC 1.2.1 (UTC 2007-09-17)

__________

Enjoy:D__________________________________________________________

Jimi Hendrix - No More A Rolling Stone 
 
Jimi Hendrix Experience

Very rare release by Purple Haze of the Monterey'67 and 
Stockholm '67 recordings.

Jimi Plays Monterey is a posthumous live album by Jimi Hendrix 
released in February 1986. 

The album documents The Jimi Hendrix Experiences performance at 
the Monterey Pop Festival on June 18, 1967. 
As well as songs from the band's debut album Are You Experienced, 
Monterey also includes covers of "Killing Floor" (Howlin' Wolf), 
"Like a Rolling Stone" (Bob Dylan), "Rock Me Baby" (B. B. King) 
and "Wild Thing" (Chip Taylor). 

The version of "Wild Thing" on the album is one of the most notable 
live performances ever, as, in an iconic moment in rock history, 
he sets his guitar alight after the song and then smashes it.

Jimi Plays Monterey is also a short film directed by D. A. Pennebaker 
documenting the same performance as the album, also released in 1986. 
It is notable for containing several interviews with rock stars, and 
containing an art piece by Denny Dent during the performance of 
"Can You See Me".
__________

Disc 1

*June 18, 1967 Monterey Pop Festival

 1. Introduction

 2. Killing Floor (Chester Arthur Burnett) – 3:37
 
 3. Foxy Lady – 3:34
 
 4. Like a Rolling Stone (Dylan) – 6:50
 
 5. Rock Me Baby (Joe Josea, B. B. King) – 3:29
 
 6. Hey Joe" (Roberts) – 4:03
 
 7. Can You See Me – 2:43
 
 8. The Wind Cries Mary – 3:46
 
 9. Purple Haze – 5:06
 
10. Wild Thing (Taylor) – 6:59

Disc 2

*September 5, 1967 in Stockholm


 1. Sgt. Pepper's Lonely Hearts Club Band
 
 2. Fire
 
 3. The Wind Cries Mary
 
 4. Foxy Lady
 
 5. Hey Joe
 
 6. I Don't Live Today
 
 7. Burning of the Midnight Lamp
 
 8. Purple Haze
__________

Format                           : FLAC
Format/Info                      : Free Lossless Audio Codec
File size                        : 20.5 MiB
Duration                         : 3mn 9s
Overall bit rate                 : 908 Kbps
Album                            : No More A Rolling Stone [Disc 1 - Live At The Monterey Pop Festival '67]
Track name                       : Killin' Floor
Track name/Position              : 02
Track name/Total                 : 10
Performer                        : Jimi Hendrix Experience, The
Genre                            : Rock
Recorded date                    : 2004
Comment                          : EAC V0.99 prebeta 4, Secure Mode, Test & Copy, AccurateRip, FLAC -8

Audio
Format                           : FLAC
Format/Info                      : Free Lossless Audio Codec
Duration                         : 3mn 9s
Bit rate mode                    : Variable
Bit rate                         : 907 Kbps
Channel(s)                       : 2 channels
Sampling rate                    : 44.1 KHz
Bit depth                        : 16 bits
Stream size                      : 20.5 MiB (100%)
Writing library                  : libFLAC 1.2.1 (UTC 2007-09-17)

__________

Enjoy:D